<?xml version="1.0" standalone="no"?>
<!DOCTYPE svg PUBLIC "-//W3C//DTD SVG 20010904//EN"
 "http://www.w3.org/TR/2001/REC-SVG-20010904/DTD/svg10.dtd">
<svg version="1.0" xmlns="http://www.w3.org/2000/svg"
 width="1080.000000pt" height="1080.000000pt" viewBox="0 0 1080.000000 1080.000000"
 preserveAspectRatio="xMidYMid meet">
<metadata>
Created by potrace 1.11, written by Peter Selinger 2001-2013
</metadata>
<g transform="translate(0.000000,1080.000000) scale(0.100000,-0.100000)"
fill="#000000" stroke="none">
<path d="M2104 9875 c-2 -5 -3 -1490 -2 -3300 l3 -3290 2387 0 c1584 0 2389 3
2391 10 5 19 0 545 -5 551 -4 3 -721 7 -1595 8 -874 2 -1595 6 -1601 10 -7 4
-12 3 -12 -2 0 -13 -63 -10 -72 3 -5 7 -8 7 -8 0 0 -9 -187 -12 -225 -5 -6 1
-13 1 -17 0 -22 -7 -54 -4 -60 5 -5 6 -8 6 -8 0 0 -10 -150 -11 -176 -1 -8 3
-14 2 -14 -2 0 -4 -32 -7 -70 -7 -39 0 -70 3 -70 7 0 4 -10 4 -21 -1 -12 -4
-41 -4 -65 -1 -24 4 -44 3 -44 -2 0 -5 -9 -4 -20 2 -11 6 -20 7 -20 3 0 -5
-24 -6 -52 -3 l-53 5 0 2723 c0 2698 1 2779 30 2732 4 -7 12 -7 26 0 10 6 19
7 19 2 0 -10 54 -7 71 3 5 4 9 2 9 -2 0 -12 73 -10 82 1 4 6 12 5 20 -1 16
-14 20 -14 58 -3 16 5 30 5 30 1 0 -8 42 -7 57 2 7 4 14 3 17 -2 6 -9 43 -7
74 4 6 2 12 0 12 -5 0 -6 9 -6 25 0 14 5 25 6 25 1 0 -9 55 -5 71 4 5 4 9 2 9
-3 0 -10 30 -9 47 1 6 4 14 3 17 -2 6 -9 61 -6 78 5 7 4 8 2 4 -4 -5 -9 0 -9
18 -2 14 5 28 6 30 1 6 -10 49 -7 67 5 8 4 9 3 5 -4 -5 -9 -1 -9 17 -3 16 6
28 6 36 -2 8 -8 11 -8 11 1 0 9 5 10 18 3 11 -6 24 -6 35 0 10 6 17 6 17 1 0
-10 54 -7 71 3 5 4 9 2 9 -3 0 -10 30 -9 47 1 6 4 14 3 17 -2 6 -9 61 -6 78 5
7 4 8 2 4 -4 -5 -9 0 -9 18 -2 14 5 28 6 30 1 6 -10 49 -7 67 5 8 4 9 3 5 -4
-5 -9 -1 -9 17 -3 16 6 28 6 36 -2 8 -8 11 -8 11 1 0 10 5 10 20 2 14 -8 20
-8 20 0 0 6 5 8 13 3 16 -10 37 -10 65 -1 15 5 21 4 17 -2 -4 -7 2 -7 19 0 14
5 28 6 30 1 6 -10 49 -7 67 5 8 4 9 3 5 -4 -5 -9 -1 -9 17 -3 16 6 28 6 36 -2
8 -8 11 -8 11 1 0 10 5 10 20 2 14 -8 20 -8 20 0 0 6 5 8 13 3 16 -10 37 -10
65 -1 15 5 21 4 17 -2 -4 -7 2 -7 19 0 14 5 28 6 30 1 6 -10 49 -7 67 5 8 4 9
3 5 -4 -5 -9 -1 -9 17 -3 16 6 28 6 36 -2 8 -8 11 -8 11 1 0 10 5 10 20 2 14
-8 20 -8 20 0 0 6 5 8 13 3 16 -10 37 -10 65 -1 15 5 21 4 17 -2 -4 -7 2 -7
19 0 14 5 28 6 30 1 6 -10 49 -7 67 5 8 4 9 3 5 -4 -5 -9 -1 -9 17 -3 16 6 28
6 36 -2 8 -8 11 -8 11 2 0 7 5 9 11 5 18 -11 53 -11 61 0 4 6 11 6 20 -1 16
-14 20 -14 58 -3 16 5 30 5 30 1 0 -8 42 -7 57 2 7 4 14 3 17 -2 6 -9 43 -7
74 4 6 2 12 0 12 -5 0 -6 9 -6 25 0 14 5 25 6 25 1 0 -9 55 -5 71 4 5 4 9 2 9
-3 0 -10 30 -9 47 1 6 4 14 3 17 -2 6 -9 61 -6 78 5 7 4 8 2 4 -4 -5 -9 0 -9
18 -2 14 5 28 6 30 1 6 -10 49 -7 67 5 8 4 9 3 5 -4 -5 -9 -1 -9 17 -3 16 6
28 6 36 -2 8 -8 11 -8 11 1 0 9 5 10 18 3 11 -6 24 -6 35 0 10 6 17 6 17 1 0
-10 54 -7 71 3 5 4 9 2 9 -2 0 -12 73 -10 82 1 4 6 14 4 24 -5 9 -8 19 -13 20
-11 9 8 64 20 64 13 0 -8 42 -7 57 2 7 4 14 3 17 -2 6 -9 43 -7 74 4 6 2 12 1
12 -4 0 -11 43 -8 52 3 4 6 12 5 20 -1 16 -14 20 -14 58 -3 16 5 30 5 30 1 0
-8 42 -7 57 2 7 4 14 3 17 -2 6 -9 43 -7 74 4 6 2 12 0 12 -5 0 -6 9 -6 25 0
14 5 25 6 25 1 0 -9 55 -5 71 4 5 4 9 2 9 -3 0 -10 30 -9 47 1 6 4 14 3 17 -2
6 -9 61 -6 78 5 7 4 8 2 4 -4 -5 -9 0 -9 18 -2 14 5 28 6 30 1 6 -10 49 -7 67
5 8 4 9 3 5 -4 -5 -9 -1 -9 17 -3 16 6 28 6 36 -2 8 -8 11 -8 11 1 0 9 5 10
18 3 11 -6 24 -6 35 0 10 6 17 6 17 1 0 -10 54 -7 71 3 5 4 9 2 9 -2 0 -12 73
-11 81 1 4 5 13 5 20 0 18 -11 28 -12 62 -3 15 4 27 4 27 0 0 -8 42 -7 57 2 7
4 14 3 17 -2 6 -9 43 -7 74 4 6 2 12 -1 12 -7 0 -7 4 -7 14 1 8 7 17 8 20 3 6
-10 60 -7 78 4 7 4 8 2 4 -4 -5 -9 0 -9 18 -2 14 5 28 6 30 1 6 -10 49 -7 67
5 8 4 9 3 5 -4 -5 -9 -1 -9 17 -3 16 6 28 6 36 -2 8 -8 11 -8 11 1 0 10 5 10
20 2 14 -8 20 -8 20 0 0 6 5 8 13 3 16 -10 37 -10 64 -1 14 4 25 3 30 -5 4 -7
8 -1353 9 -2992 0 -1639 4 -2987 7 -2995 5 -10 23 -15 55 -16 70 -2 138 -11
151 -18 6 -4 11 -2 11 4 0 6 5 8 11 4 18 -11 71 -15 217 -17 l132 -3 -2 3301
-3 3300 -3294 0 c-2198 0 -3295 -3 -3297 -10z"/>
<path d="M3781 7925 c-1 -6 -25 -11 -53 -11 -59 -1 -253 -12 -253 -14 0 -1
-16 -3 -35 -4 -19 -1 -41 -5 -48 -10 -7 -4 -12 -2 -12 6 0 8 -3 9 -8 3 -7 -9
-45 -15 -119 -19 -18 0 -34 -3 -35 -6 0 -3 -2 -581 -3 -1285 l-1 -1281 285 0
c157 0 288 3 291 7 3 4 5 233 5 508 0 329 3 502 10 504 10 4 240 1 240 -2 0
-2 14 -4 30 -7 51 -7 59 -10 99 -29 115 -55 161 -148 250 -495 63 -248 97
-363 130 -445 l16 -40 300 -1 c165 0 300 2 300 3 0 2 -13 43 -29 91 -24 71
-55 178 -77 262 -104 411 -161 579 -232 682 -39 57 -109 125 -144 141 -15 6
-28 15 -28 18 0 4 -11 10 -25 13 -14 4 -23 11 -20 16 4 6 10 8 15 5 4 -3 10
-2 12 2 1 5 23 18 48 30 74 37 110 60 104 66 -3 3 4 8 15 12 42 13 151 146
196 240 67 139 86 280 57 434 -41 225 -154 376 -352 473 -47 23 -94 46 -104
51 -11 5 -29 10 -40 12 -12 2 -36 8 -54 13 -18 6 -35 11 -37 11 -3 1 -6 1 -7
2 -40 12 -206 31 -285 32 -29 1 -53 6 -53 11 0 6 -5 5 -11 -1 -8 -8 -20 -8
-35 -3 -16 6 -24 6 -24 -1 0 -6 -6 -6 -18 0 -13 7 -23 6 -30 -1 -7 -7 -12 -8
-12 -2 0 5 -9 10 -20 10 -11 0 -20 -4 -20 -9 0 -5 -6 -5 -13 1 -7 6 -18 7 -27
2 -7 -4 -23 -4 -36 0 -12 5 -24 7 -26 4 -11 -10 -68 -10 -72 0 -2 6 -5 7 -5 1z
m133 -447 c-5 -7 -3 -8 7 -2 15 9 209 13 209 4 0 -3 15 -6 33 -6 40 -2 78 -11
114 -26 16 -6 30 -12 33 -12 16 -4 70 -45 98 -75 60 -65 76 -113 77 -231 0
-93 -3 -111 -26 -160 -26 -55 -88 -130 -108 -130 -6 0 -11 -5 -11 -11 0 -5 -4
-7 -10 -4 -5 3 -10 2 -10 -2 0 -9 -73 -43 -93 -43 -8 0 -17 -3 -21 -7 -12 -12
-52 -15 -236 -16 l-175 -2 0 354 c0 229 3 355 10 357 5 2 29 6 53 8 24 2 46 7
49 10 10 10 15 7 7 -6z"/>
<path d="M5482 7893 c-10 -21 -8 -1545 2 -1651 24 -244 93 -457 198 -610 37
-54 160 -182 175 -182 5 0 18 -9 28 -20 10 -11 24 -20 31 -20 7 0 14 -3 16 -7
3 -8 94 -56 111 -59 4 -1 9 -3 12 -4 3 -1 10 -4 15 -5 6 -1 13 -4 18 -5 4 -1
10 -2 15 -1 4 0 7 -4 7 -11 0 -6 3 -9 6 -5 3 3 18 1 33 -4 14 -6 42 -13 61
-16 70 -10 75 -11 75 -13 0 -2 11 -3 25 -4 14 -1 31 -5 38 -9 7 -5 12 -3 12 5
0 9 3 9 8 2 5 -7 60 -10 162 -8 151 3 188 5 260 19 19 4 40 8 45 9 6 1 16 5
23 9 6 5 12 6 12 3 0 -3 18 1 40 9 22 8 42 15 45 15 10 1 42 14 85 33 25 11
48 19 53 19 4 -1 7 2 7 8 0 5 4 10 10 10 16 0 127 80 172 124 47 45 118 129
118 139 0 3 12 23 26 44 69 102 120 255 160 483 4 19 9 410 11 869 4 864 4
871 -34 839 -7 -6 -13 -6 -13 -1 0 10 -92 9 -109 -1 -6 -4 -11 -3 -11 2 0 10
-92 8 -109 -2 -6 -4 -11 -3 -11 2 0 10 -92 8 -109 -2 -6 -4 -11 -3 -11 1 0 13
-93 10 -102 -2 -5 -7 -11 -7 -15 0 -5 6 -14 10 -20 9 -7 -1 -19 -2 -27 -3 -11
-1 -13 -135 -13 -793 0 -436 -4 -820 -7 -853 -24 -200 -79 -334 -175 -422 -31
-28 -110 -74 -136 -79 -5 -1 -26 -6 -45 -10 -64 -14 -202 -9 -265 10 -21 6
-71 32 -100 51 -111 74 -190 239 -212 443 -3 31 -7 415 -8 852 -1 437 -3 799
-4 804 0 5 -8 3 -16 -4 -8 -7 -15 -8 -15 -3 0 10 -92 9 -109 -1 -6 -4 -11 -3
-11 1 0 13 -93 10 -102 -2 -5 -6 -11 -5 -17 3 -4 8 -12 14 -16 14 -4 0 -12 -6
-16 -14 -5 -7 -9 -8 -9 -2 0 11 -90 11 -109 0 -6 -4 -11 -3 -11 1 0 5 -22 8
-50 8 -27 0 -50 -3 -50 -8 0 -4 -9 -3 -20 3 -15 8 -21 7 -28 -7z"/>
<path d="M5904 2948 c-2 -3 -12 -5 -22 -4 -23 4 -94 -27 -127 -56 -56 -49 -85
-148 -63 -225 12 -45 84 -117 143 -143 174 -77 205 -105 205 -190 0 -90 -66
-139 -180 -136 -41 2 -83 11 -114 24 -27 12 -50 22 -52 22 -2 0 -8 -18 -15
-39 -13 -44 -3 -63 36 -69 11 -2 25 -8 32 -14 13 -11 213 -18 213 -7 0 4 15
10 34 13 19 4 39 13 46 21 7 8 18 15 24 15 18 1 63 71 76 119 21 80 -6 178
-63 228 -30 25 -89 58 -99 55 -5 -1 -8 3 -8 10 0 6 -3 9 -6 5 -3 -3 -21 3 -40
14 -19 10 -40 19 -46 19 -6 0 -28 18 -50 39 -32 33 -38 46 -38 81 0 50 20 92
52 107 66 30 79 32 148 19 19 -4 41 -8 48 -8 6 -1 12 -4 12 -8 0 -3 9 -6 19
-7 19 -2 41 39 41 73 0 12 -59 35 -102 40 -10 1 -19 2 -20 3 -8 6 -80 5 -84
-1z"/>
<path d="M7848 2955 c-3 -3 -16 -8 -29 -10 -13 -3 -37 -8 -54 -12 -16 -4 -33
-6 -37 -5 -5 1 -8 -3 -8 -9 0 -5 -4 -7 -10 -4 -5 3 -10 1 -10 -6 0 -7 -3 -9
-7 -6 -8 8 -66 -35 -112 -83 -124 -130 -140 -402 -33 -558 33 -49 140 -138
151 -126 2 2 10 -1 18 -7 7 -6 13 -8 13 -4 0 4 7 2 15 -5 17 -14 185 -18 240
-7 50 11 70 15 75 17 3 1 8 2 11 2 9 -1 1 56 -12 80 -6 11 -14 17 -18 12 -12
-17 -90 -31 -163 -29 -180 5 -288 124 -291 320 -1 98 21 178 66 237 36 47 118
97 163 100 16 1 33 4 39 7 8 4 55 3 118 -2 9 -1 17 -4 17 -7 0 -4 6 -7 13 -7
6 0 22 -3 34 -7 21 -7 26 2 39 71 3 15 -53 33 -126 39 -30 3 -61 7 -67 9 -7 3
-13 -1 -13 -8 0 -9 -2 -9 -8 1 -5 7 -11 10 -14 7z"/>
<path d="M2233 2938 c-6 -7 -14 -65 -18 -128 -4 -63 -9 -131 -10 -150 -1 -19
-5 -82 -9 -140 -4 -58 -9 -130 -11 -160 -2 -30 -7 -98 -10 -151 l-6 -96 45 2
c25 0 47 3 50 6 2 2 7 51 10 109 7 130 16 286 21 365 2 33 4 98 5 145 2 90 3
89 35 -25 10 -33 36 -116 58 -185 91 -286 129 -395 138 -398 5 -2 7 -7 5 -10
-3 -6 27 -7 67 -3 4 1 7 8 7 16 0 8 4 23 9 33 13 23 139 386 190 542 l40 125
2 -110 c0 -60 2 -128 4 -150 1 -22 6 -103 10 -180 4 -77 9 -160 10 -185 2 -25
3 -56 4 -70 1 -24 4 -26 52 -25 l50 0 -6 90 c-3 50 -7 131 -10 180 -3 50 -7
117 -9 150 -3 33 -8 116 -11 185 -4 69 -9 136 -10 150 -2 14 -4 35 -4 47 -1
19 -6 22 -41 19 -24 -2 -40 1 -40 8 0 6 -4 5 -9 -2 -10 -17 -21 -17 -30 -3 -8
12 -67 -149 -158 -424 -31 -93 -58 -177 -61 -185 -8 -23 -9 -29 -11 -46 -2
-28 -18 -5 -25 37 -6 40 -179 566 -198 602 -7 13 -17 17 -39 13 -18 -3 -29 0
-29 7 0 8 -3 7 -9 -1 -10 -17 -21 -17 -31 -2 -5 8 -10 7 -17 -2z"/>
<path d="M3430 2941 c0 -4 -22 -7 -50 -5 -31 1 -50 -2 -50 -9 0 -5 -50 -164
-112 -351 -62 -188 -113 -345 -114 -351 -1 -5 -9 -30 -18 -54 -9 -24 -16 -47
-16 -51 0 -3 23 -6 52 -6 l51 1 24 70 c13 39 29 90 35 115 18 74 20 75 168 74
98 -1 134 -5 140 -15 5 -7 25 -65 45 -129 l37 -116 48 1 c27 0 51 3 54 6 5 4
-204 652 -249 776 -14 36 -45 67 -45 44z m29 -307 c28 -88 51 -165 51 -170 0
-5 -49 -9 -112 -8 -133 1 -125 -20 -63 179 25 77 48 156 52 175 6 33 7 34 14
10 4 -14 30 -97 58 -186z"/>
<path d="M4281 2942 c-1 -7 -5 -11 -10 -8 -9 6 -132 -145 -250 -306 -31 -42
-59 -77 -62 -77 -4 -1 -6 86 -6 192 l1 192 -52 1 -52 1 0 -412 0 -412 50 1
c28 1 50 5 51 11 0 5 1 76 2 157 2 115 5 151 17 165 8 10 25 30 37 46 l21 27
21 -32 c28 -45 39 -61 92 -143 25 -38 68 -104 94 -145 27 -41 52 -77 56 -80
13 -9 109 -5 110 4 1 4 -41 71 -93 149 -51 77 -97 149 -103 158 -5 10 -25 38
-42 64 -18 25 -33 50 -33 56 0 5 -4 9 -10 9 -16 0 -12 35 8 58 9 11 24 30 32
42 8 12 26 34 40 49 14 15 39 44 55 65 17 21 35 43 40 50 6 6 29 34 53 63 l43
52 -50 -3 c-30 -2 -52 1 -55 8 -3 7 -5 6 -5 -2z"/>
<path d="M4630 2942 c0 -4 -31 -7 -70 -6 l-70 1 0 -411 0 -412 218 2 c119 1
220 2 225 3 9 1 9 63 -1 76 -4 7 -64 10 -157 10 -82 0 -157 1 -166 3 -14 3
-16 24 -17 148 0 121 2 144 14 140 8 -3 14 -2 14 2 0 4 9 8 20 8 11 0 20 -4
20 -7 0 -4 14 -4 30 1 19 5 30 5 30 -1 0 -6 6 -7 12 -3 17 11 48 12 48 3 0 -4
13 -4 29 1 19 5 33 4 40 -3 8 -8 11 -8 11 0 0 6 8 9 19 6 13 -3 19 2 22 19 8
43 -1 66 -27 71 -13 2 -24 1 -24 -2 0 -5 -151 -6 -246 -1 -7 0 -10 43 -10 128
l1 127 130 2 c221 2 195 -5 195 56 0 28 -4 48 -8 42 -4 -6 -54 -10 -112 -10
-58 0 -108 4 -112 10 -5 6 -8 6 -8 -1 0 -6 -7 -11 -15 -11 -8 0 -15 4 -15 9 0
4 -4 8 -10 8 -5 0 -10 -4 -10 -8z"/>
<path d="M5180 2940 c0 -3 -17 -5 -37 -4 -79 2 -74 31 -71 -419 l3 -401 48 -1
c36 -1 47 3 48 14 0 9 2 88 4 176 1 88 3 162 4 165 1 5 105 3 131 -3 69 -16
99 -64 136 -222 15 -60 30 -115 35 -121 8 -10 98 -13 100 -3 1 2 -4 24 -11 49
-7 25 -14 52 -15 60 -35 162 -57 213 -112 260 -21 18 -33 30 -26 26 6 -3 19 1
27 10 9 8 16 12 16 7 0 -23 81 85 91 120 13 50 7 133 -14 173 -29 57 -98 101
-170 111 -50 6 -187 9 -187 3z m110 -79 c0 -4 12 -7 28 -7 89 -5 143 -66 137
-157 -3 -50 -43 -117 -71 -117 -7 0 -14 -4 -14 -8 0 -11 -10 -13 -110 -15
l-85 -2 -1 148 c0 145 0 148 22 153 13 3 28 3 33 -1 6 -3 11 -2 11 2 0 5 11 9
25 9 14 0 25 -2 25 -5z"/>
<path d="M6385 2942 c-2 -3 -19 -6 -37 -7 -18 -2 -39 -3 -45 -4 -10 -1 -13
-90 -13 -409 l0 -408 50 0 50 1 0 161 c0 133 3 163 15 167 8 4 16 3 19 -1 5
-9 87 -9 101 0 6 3 20 4 33 3 12 -1 22 2 22 7 0 5 4 7 8 4 5 -3 21 1 35 9 15
8 30 14 33 14 17 -2 86 75 101 112 26 64 24 172 -5 226 -33 63 -93 104 -175
119 -41 7 -186 12 -192 6z m215 -108 c90 -52 100 -192 20 -265 -28 -26 -48
-34 -72 -30 -5 0 -8 -3 -8 -7 0 -6 -73 -8 -137 -3 -10 1 -13 40 -13 160 0 118
3 161 13 164 6 3 46 4 88 3 54 -2 85 -8 109 -22z"/>
<path d="M7110 2942 c0 -5 -19 -8 -42 -8 l-42 1 -133 -404 c-72 -223 -130
-407 -128 -411 2 -4 25 -6 51 -5 l47 1 40 125 c22 68 42 126 43 128 9 10 268
5 279 -5 6 -7 28 -64 48 -127 21 -63 43 -117 50 -119 6 -2 30 -4 52 -3 29 0
40 4 39 15 -1 8 -59 192 -130 407 -109 332 -132 393 -151 402 -13 6 -23 7 -23
3z m45 -324 c26 -81 44 -151 42 -155 -5 -9 -213 -10 -222 -2 -3 3 12 57 33
120 21 63 47 147 57 187 l19 74 12 -39 c7 -21 33 -104 59 -185z"/>
<path d="M8236 2941 c-4 -6 -12 -9 -17 -6 -5 4 -9 -4 -10 -17 -1 -27 -1 -791
0 -798 2 -9 436 -6 442 3 5 7 5 19 0 72 -1 7 -61 10 -171 10 l-170 -1 0 148
c0 81 3 147 8 147 4 -1 9 0 12 1 16 6 50 6 50 -1 0 -4 13 -4 29 1 19 5 33 4
40 -3 6 -6 11 -7 11 -1 0 5 9 10 20 10 11 0 20 -4 20 -7 0 -4 15 -3 32 2 18 5
34 5 36 0 1 -4 14 -6 27 -3 22 4 25 10 25 47 l0 42 -77 2 c-42 1 -80 4 -85 7
-4 3 -8 2 -8 -3 0 -4 -30 -7 -67 -6 l-68 1 -3 130 -3 129 133 1 c223 1 200 -5
194 45 -3 23 -5 43 -5 44 -1 2 -23 1 -51 -1 -31 -1 -50 1 -50 8 0 6 -4 5 -9
-2 -4 -8 -12 -14 -16 -14 -4 0 -12 6 -16 14 -6 8 -12 9 -16 3 -9 -12 -93 -12
-111 -1 -7 4 -12 3 -12 -2 0 -11 -93 -10 -101 2 -4 4 -10 3 -13 -3z"/>
<path d="M2474 1757 c-8 -5 -18 -6 -21 -3 -4 3 -12 1 -20 -5 -7 -6 -13 -8 -13
-4 0 4 -11 0 -25 -9 -14 -9 -25 -14 -25 -11 0 9 -82 -50 -115 -83 -123 -122
-148 -404 -49 -557 32 -48 104 -116 116 -109 4 3 8 1 8 -5 0 -6 11 -13 25 -17
14 -3 25 -10 25 -16 0 -5 5 -6 10 -3 6 3 15 3 22 -1 35 -22 179 -22 268 -1 69
17 69 16 58 55 -14 52 -13 51 -58 36 -44 -15 -157 -20 -204 -10 -53 12 -91 33
-126 68 -50 51 -56 60 -75 114 -48 141 -19 308 68 394 36 35 101 72 111 63 3
-4 6 -1 6 5 0 6 7 9 15 6 8 -4 15 -2 15 3 0 5 32 8 73 6 82 -3 97 -5 115 -16
6 -5 12 -5 12 -1 0 3 7 1 15 -6 12 -10 16 -10 19 1 2 8 9 28 14 46 11 34 8 37
-48 50 -69 18 -193 23 -216 10z"/>
<path d="M3893 1752 l-23 -3 -1 -277 c-1 -300 0 -296 -24 -358 -28 -74 -94
-114 -178 -109 -70 5 -107 31 -142 100 l-30 59 -2 285 c-1 157 -2 289 -2 294
-1 4 -24 7 -52 7 l-51 0 4 -312 c4 -336 4 -336 61 -420 24 -36 96 -86 133 -92
16 -2 29 -5 29 -6 0 -7 117 -5 121 2 3 4 9 6 14 3 12 -7 92 31 121 57 90 84
102 140 104 475 0 149 -2 278 -5 285 -5 13 -32 16 -77 10z"/>
<path d="M4206 1749 c-16 -5 -33 -6 -38 -3 -4 3 -9 2 -10 -3 0 -4 -2 -189 -3
-410 -2 -455 -11 -404 78 -407 20 0 37 -5 37 -10 0 -5 6 -4 13 3 10 8 17 7 25
-1 7 -7 12 -8 12 -3 0 6 21 10 48 9 26 0 61 4 77 8 17 5 37 11 45 13 119 28
193 165 153 285 -8 25 -27 58 -41 73 -28 29 -81 63 -94 59 -5 -1 -8 2 -8 7 0
9 26 23 34 18 3 -1 16 12 31 28 104 119 67 272 -78 321 -56 19 -229 27 -281
13z m204 -82 c0 -5 4 -6 9 -3 16 10 70 -28 86 -61 53 -110 -27 -199 -177 -198
l-72 0 0 130 c0 127 0 129 23 135 36 8 131 6 131 -3z m0 -352 c89 -17 140 -78
135 -162 -2 -40 -34 -101 -57 -109 -10 -3 -18 -10 -18 -15 0 -5 -3 -8 -7 -8
-5 1 -10 0 -13 -1 -40 -15 -170 -19 -184 -5 -9 9 -13 176 -7 295 1 12 13 15
59 13 31 -1 73 -5 92 -8z"/>
<path d="M2879 1743 c-7 -31 -3 -813 3 -814 73 -6 369 -2 372 6 3 6 5 6 5 -1
1 -6 14 -9 31 -6 27 4 30 8 30 42 0 30 -5 39 -25 48 -14 6 -25 8 -25 4 0 -10
-93 -8 -109 2 -6 4 -11 4 -11 -1 0 -4 -38 -8 -85 -8 -68 0 -85 3 -86 15 0 8
-1 174 -1 368 l0 352 -49 0 c-27 0 -50 -3 -50 -7z"/>
</g>
</svg>
